<?xml version="1.0" encoding="UTF-8" standalone="no"?>
<svg 
	xmlns="http://www.w3.org/2000/svg" 
	version="1.1" 
	xmlns:xlink="http://www.w3.org/1999/xlink" 
	width="1500" 
	height="272" 
	viewBox="0 0 1500 272">
		<g transform="matrix(1,0,0,1,-0.9090909090909918,-0.3399915949171941)">
			<svg viewBox="0 0 396 72" data-background-color="#21232b" preserveAspectRatio="xMidYMid meet" height="272" width="1500" xmlns="http://www.w3.org/2000/svg" xmlns:xlink="http://www.w3.org/1999/xlink"><g id="tight-bounds" transform="matrix(1,0,0,1,0.2400000000000091,0.08999777512514129)"><svg viewBox="0 0 395.52 71.82000444974969" height="71.82000444974969" width="395.52"><g><svg viewBox="0 0 533.5238847100832 96.87926722776575" height="71.82000444974969" width="395.52"><g transform="matrix(1,0,0,1,138.00388471008316,7.20388524078092)"><svg viewBox="0 0 395.52 82.47149674620391" height="82.47149674620391" width="395.52"><g id="textblocktransform"><svg viewBox="0 0 395.52 82.47149674620391" height="82.47149674620391" width="395.52" id="textblock"><g><svg viewBox="0 0 395.52 82.47149674620391" height="82.47149674620391" width="395.52"><g transform="matrix(1,0,0,1,0,0)"><svg width="395.52" viewBox="3 -37.7 184.38 38.45" height="82.47149674620391" data-palette-color="#f4f3f0"><path d="M10.7-34.55Q15.05-34.55 18.23-33.23 21.4-31.9 23.38-28.13 25.35-24.35 25.35-17.45L25.35-17.45Q25.35-7.7 21.48-3.85 17.6 0 11.35 0L11.35 0 3 0 3-34.55 10.7-34.55ZM11.65-29.8L9.35-29.8 9.35-4.75 11.7-4.75Q13.95-4.75 15.48-5.8 17-6.85 17.88-9.65 18.75-12.45 18.75-17.45L18.75-17.45Q18.75-22.55 17.82-25.25 16.9-27.95 15.38-28.88 13.85-29.8 11.65-29.8L11.65-29.8ZM46.85-6.4Q46.85-5.1 47.2-4.48 47.55-3.85 48.35-3.45L48.35-3.45 47.1 0.65Q45.05 0.4 43.82-0.45 42.6-1.3 42-3.05L42-3.05Q39.7 0.75 35.55 0.75L35.55 0.75Q32.25 0.75 30.3-1.48 28.35-3.7 28.35-7.4L28.35-7.4Q28.35-11.7 31.02-13.95 33.7-16.2 38.8-16.2L38.8-16.2 40.85-16.2 40.85-18.05Q40.85-20.55 39.97-21.58 39.1-22.6 37.15-22.6L37.15-22.6Q34.8-22.6 31.3-21.3L31.3-21.3 29.9-25.3Q31.9-26.2 34.05-26.68 36.2-27.15 38.15-27.15L38.15-27.15Q46.85-27.15 46.85-18.35L46.85-18.35 46.85-6.4ZM37.2-3.7Q39.6-3.7 40.85-7L40.85-7 40.85-12.55 39.4-12.55Q36.85-12.55 35.67-11.4 34.5-10.25 34.5-7.85L34.5-7.85Q34.5-5.8 35.2-4.75 35.9-3.7 37.2-3.7L37.2-3.7ZM65.59-37.7L71.75-37.05 71.75 0 66.3 0 66-3.05Q63.65 0.75 59.95 0.75L59.95 0.75Q55.84 0.75 53.67-2.93 51.5-6.6 51.5-13.2L51.5-13.2Q51.5-17.4 52.62-20.58 53.75-23.75 55.75-25.45 57.75-27.15 60.34-27.15L60.34-27.15Q63.55-27.15 65.59-24.5L65.59-24.5 65.59-37.7ZM61.7-3.9Q62.84-3.9 63.77-4.7 64.7-5.5 65.59-7L65.59-7 65.59-19.85Q64-22.55 61.95-22.55L61.95-22.55Q57.9-22.55 57.9-13.25L57.9-13.25Q57.9-8.2 58.9-6.05 59.9-3.9 61.7-3.9L61.7-3.9ZM89.09-35.25Q91.74-35.25 93.77-34.38 95.79-33.5 97.69-31.7L97.69-31.7 94.64-28.05Q93.34-29.25 92.12-29.83 90.89-30.4 89.44-30.4L89.44-30.4Q86.44-30.4 84.74-27.4 83.04-24.4 83.04-17.35L83.04-17.35Q83.04-10.4 84.74-7.38 86.44-4.35 89.54-4.35L89.54-4.35Q91.09-4.35 92.24-4.98 93.39-5.6 94.94-6.9L94.94-6.9 97.99-3.4Q96.39-1.6 94.14-0.43 91.89 0.75 89.09 0.75L89.09 0.75Q83.24 0.75 79.79-3.8 76.34-8.35 76.34-17.35L76.34-17.35Q76.34-23.3 77.99-27.3 79.64-31.3 82.52-33.27 85.39-35.25 89.09-35.25L89.09-35.25ZM110.64-27.15Q115.64-27.15 118.42-23.65 121.19-20.15 121.19-13.25L121.19-13.25Q121.19-6.65 118.39-2.95 115.59 0.75 110.64 0.75L110.64 0.75Q105.69 0.75 102.89-2.88 100.09-6.5 100.09-13.25L100.09-13.25Q100.09-19.95 102.89-23.55 105.69-27.15 110.64-27.15L110.64-27.15ZM110.64-22.5Q108.49-22.5 107.49-20.38 106.49-18.25 106.49-13.25L106.49-13.25Q106.49-8.2 107.49-6.08 108.49-3.95 110.64-3.95L110.64-3.95Q112.79-3.95 113.79-6.08 114.79-8.2 114.79-13.25L114.79-13.25Q114.79-18.3 113.79-20.4 112.79-22.5 110.64-22.5L110.64-22.5ZM138.69-37.7L144.84-37.05 144.84 0 139.39 0 139.09-3.05Q136.74 0.75 133.04 0.75L133.04 0.75Q128.94 0.75 126.76-2.93 124.59-6.6 124.59-13.2L124.59-13.2Q124.59-17.4 125.71-20.58 126.84-23.75 128.84-25.45 130.84-27.15 133.44-27.15L133.44-27.15Q136.64-27.15 138.69-24.5L138.69-24.5 138.69-37.7ZM134.79-3.9Q135.94-3.9 136.86-4.7 137.79-5.5 138.69-7L138.69-7 138.69-19.85Q137.09-22.55 135.04-22.55L135.04-22.55Q130.99-22.55 130.99-13.25L130.99-13.25Q130.99-8.2 131.99-6.05 132.99-3.9 134.79-3.9L134.79-3.9ZM169.38-13.85Q169.38-13.4 169.24-11.3L169.24-11.3 155.59-11.3Q155.78-7.2 157.01-5.58 158.24-3.95 160.49-3.95L160.49-3.95Q162.03-3.95 163.28-4.48 164.53-5 165.99-6.15L165.99-6.15 168.53-2.65Q165.03 0.75 160.13 0.75L160.13 0.75Q154.94 0.75 152.16-2.85 149.38-6.45 149.38-13L149.38-13Q149.38-19.55 152.03-23.35 154.69-27.15 159.53-27.15L159.53-27.15Q164.19-27.15 166.78-23.78 169.38-20.4 169.38-13.85L169.38-13.85ZM163.38-15.3L163.38-15.65Q163.38-19.4 162.49-21.13 161.59-22.85 159.59-22.85L159.59-22.85Q157.74-22.85 156.76-21.18 155.78-19.5 155.59-15.3L155.59-15.3 163.38-15.3ZM185.33-27.1Q186.48-27.1 187.38-26.75L187.38-26.75 186.38-20.85Q185.38-21.1 184.53-21.1L184.53-21.1Q182.63-21.1 181.53-19.45 180.43-17.8 179.83-14.55L179.83-14.55 179.83 0 173.68 0 173.68-26.45 179.03-26.45 179.48-21.85Q181.33-27.1 185.33-27.1L185.33-27.1Z" opacity="1" transform="matrix(1,0,0,1,0,0)" fill="#f4f3f0" class="wordmark-text-0" data-fill-palette-color="primary" id="text-0"></path></svg></g></svg></g></svg></g></svg></g><g><svg viewBox="0 0 118.53434364422631 96.87926722776575" height="96.87926722776575" width="118.53434364422631"><g><svg xmlns="http://www.w3.org/2000/svg" xmlns:xlink="http://www.w3.org/1999/xlink" version="1.1" x="0" y="0" viewBox="0 9.135 99.999679479458 81.73070667231237" enable-background="new 0 0 100 100" xml:space="preserve" height="96.87926722776575" width="118.53434364422631" class="icon-icon-0" data-fill-palette-color="accent" id="icon-0"><g fill="#2f84ff" data-fill-palette-color="accent"><path fill="#2f84ff" d="M98.016 72.014C94.24 68.563 89.725 71.703 89.725 71.703 93.188 69.925 97.728 72.821 96.545 76.933 95.63 80.119 91.295 79.972 91.295 79.972 81.503 79.73 73.861 70.265 66.946 64.787 63.194 61.809 57.73 62.587 54.137 65.498 50.543 62.587 45.079 61.81 41.326 64.787 34.411 70.265 26.772 79.729 16.977 79.972 16.977 79.972 12.643 80.118 11.727 76.933 10.548 72.821 15.084 69.924 18.547 71.703 18.547 71.703 14.032 68.562 10.256 72.014 6.482 75.469 6.724 90.672 23.381 90.864 29.766 90.933 46.546 88.871 54.136 80.917 61.728 88.871 78.507 90.934 84.892 90.864 101.549 90.672 101.79 75.469 98.016 72.014" data-fill-palette-color="accent"></path><path fill="#2f84ff" d="M33.537 51.521C45.209 51.521 54.706 42.006 54.706 30.313 54.706 18.636 45.209 9.135 33.537 9.135 22.586 9.135 13.553 17.501 12.482 28.182H0V32.444H12.481C13.551 43.142 22.584 51.521 33.537 51.521M33.537 13.991C42.532 13.991 49.851 21.313 49.851 30.313 49.851 39.329 42.531 46.666 33.537 46.666 24.545 46.666 17.229 39.329 17.229 30.313 17.229 21.313 24.545 13.991 33.537 13.991" data-fill-palette-color="accent"></path><rect x="30.357" y="16.886" transform="matrix(0.7071 0.7071 -0.7071 0.7071 28.4993 -13.9327)" fill="#2f84ff" width="1.421" height="21.098" data-fill-palette-color="accent"></rect><rect x="23.36" y="31.461" transform="matrix(-0.7071 0.7071 -0.7071 -0.7071 80.6355 30.9435)" fill="#2f84ff" width="21.098" height="1.42" data-fill-palette-color="accent"></rect></g></svg></g></svg></g></svg></g><defs></defs></svg><rect width="395.52" height="71.82000444974969" fill="none" stroke="none" visibility="hidden"></rect></g></svg></g></svg>